<mxfile host="app.diagrams.net" modified="2024-03-02T06:59:58.972Z" agent="Mozilla/5.0 (Macintosh; Intel Mac OS X 10_15_7) AppleWebKit/537.36 (KHTML, like Gecko) Chrome/122.0.0.0 Safari/537.36" version="24.0.0" etag="xefGY53CxSB50-uzDG5W" type="github">
  <diagram name="페이지-1" id="REzoosi8NeGF5GaJsm2n">
    <mxGraphModel>
      <root>
        <mxCell id="0" />
        <mxCell id="1" parent="0" />
      </root>
    </mxGraphModel>
  </diagram>
</mxfile>
